<?xml version="1.0" encoding="utf-8"?>
<svg xmlns="http://www.w3.org/2000/svg" viewBox="0 0 400 180">
  <path d="M 33.6 151.5 C 29.900000000000002 151.5 26.625 151.25 23.775 150.75 C 20.925 150.25 18.475 149.4 16.425 148.2 C 14.375 147 12.674999999999999 145.375 11.325 143.325 C 9.975 141.275 9 138.75 8.4 135.75 C 7.8 132.75 7.5 129.15 7.5 124.95 L 7.5 52.8 C 7.5 51 7.65 49.425000000000004 7.95 48.075 C 8.25 46.725 9.05 45.625 10.35 44.775 C 11.65 43.925 13.700000000000001 43.5 16.5 43.5 C 19.3 43.5 21.325 43.9 22.575 44.7 C 23.825 45.5 24.625 46.6 24.975 48 C 25.325 49.4 25.5 50.95 25.5 52.65 L 25.5 124.2 C 25.5 126.1 25.625 127.675 25.875 128.925 C 26.125 130.175 26.575 131.175 27.225 131.925 C 27.875 132.675 28.724999999999998 133.20000000000002 29.775 133.5 C 30.825 133.79999999999998 32.1 133.95 33.6 133.95 C 34.9 133.95 36.074999999999996 134.1 37.125 134.4 C 38.175000000000004 134.7 39.025 135.45 39.675 136.65 C 40.324999999999996 137.85 40.65 139.79999999999998 40.65 142.5 C 40.65 145.29999999999998 40.324999999999996 147.35 39.675 148.65 C 39.025 149.95 38.15 150.75 37.05 151.05 C 35.949999999999996 151.35 34.8 151.5 33.6 151.5 Z" style="fill: rgb(18, 53, 71); text-wrap-mode: nowrap;"/>
  <path d="M 334.12 151.35 C 329.52000000000004 151.35 325.27000000000004 150.525 321.37 148.875 C 317.46999999999997 147.225 314.07 144.85 311.17 141.75 C 308.27 138.65 306.02 134.95 304.42 130.65 C 302.82 126.35000000000001 302.02 121.60000000000001 302.02 116.4 L 302.02 86.55 C 302.02 84.85 302.195 83.325 302.545 81.975 C 302.895 80.625 303.71999999999997 79.55 305.02 78.75 C 306.32 77.95 308.32 77.55 311.02 77.55 C 313.92 77.55 315.995 77.95 317.245 78.75 C 318.495 79.55 319.27 80.65 319.57 82.05 C 319.87 83.45 320.02 85 320.02 86.7 L 320.02 116.4 C 320.02 120 320.645 123.1 321.895 125.7 C 323.145 128.3 324.96999999999997 130.325 327.37 131.775 C 329.77000000000004 133.225 332.72 133.95 336.22 133.95 C 339.82 133.95 342.87 133.225 345.37 131.775 C 347.87 130.325 349.82 128.275 351.22 125.625 C 352.62 122.97500000000001 353.32 119.9 353.32 116.4 L 353.32 86.55 C 353.32 84.85 353.495 83.3 353.845 81.9 C 354.195 80.5 354.995 79.425 356.245 78.675 C 357.495 77.925 359.57 77.55 362.47 77.55 C 365.27000000000004 77.55 367.27000000000004 77.95 368.47 78.75 C 369.67 79.55 370.445 80.65 370.795 82.05 C 371.145 83.45 371.32 85 371.32 86.7 L 371.32 142.8 C 371.32 144.3 371.145 145.70000000000002 370.795 147 C 370.445 148.29999999999998 369.645 149.35 368.395 150.15 C 367.145 150.95 365.12 151.35 362.32 151.35 C 360.32 151.35 358.71999999999997 151.125 357.52 150.675 C 356.32 150.225 355.445 149.625 354.895 148.875 C 354.34499999999997 148.125 353.995 147.35 353.845 146.55 C 353.695 145.75 353.62 144.95 353.62 144.15 L 354.97 140.25 C 354.27000000000004 141.04999999999998 353.32 142.075 352.12 143.325 C 350.92 144.575 349.445 145.825 347.695 147.075 C 345.945 148.325 343.945 149.35 341.695 150.15 C 339.445 150.95 336.92 151.35 334.12 151.35 Z" style="fill: rgb(18, 53, 71); text-wrap-mode: nowrap;"/>
  <path d="M 280.868 151.5 C 275.96799999999996 151.5 271.768 151 268.268 150 C 264.768 149 261.893 147.45 259.643 145.35 C 257.393 143.25 255.76799999999997 140.525 254.768 137.175 C 253.768 133.82500000000002 253.268 129.85 253.268 125.25 L 253.268 61.65 C 253.268 59.95 253.418 58.425000000000004 253.718 57.075 C 254.018 55.725 254.793 54.675 256.043 53.925 C 257.293 53.175 259.318 52.8 262.118 52.8 C 264.918 52.8 266.943 53.199999999999996 268.193 54 C 269.443 54.800000000000004 270.243 55.875 270.593 57.225 C 270.943 58.575 271.118 60.1 271.118 61.8 L 271.118 124.65 C 271.118 126.75 271.293 128.45 271.643 129.75 C 271.993 131.04999999999998 272.543 132.025 273.293 132.675 C 274.043 133.32500000000002 275.043 133.775 276.293 134.025 C 277.543 134.275 279.068 134.4 280.868 134.4 C 282.76800000000003 134.4 284.39300000000003 134.55 285.743 134.85 C 287.09299999999996 135.15 288.118 135.875 288.818 137.025 C 289.518 138.175 289.868 140.05 289.868 142.65 C 289.868 145.45 289.443 147.475 288.593 148.725 C 287.743 149.975 286.643 150.75 285.293 151.05 C 283.943 151.35 282.46799999999996 151.5 280.868 151.5 Z M 247.118 79.05 L 262.568 79.2 L 283.268 78.6 C 284.96799999999996 78.6 286.493 78.77499999999999 287.843 79.125 C 289.193 79.47500000000001 290.268 80.275 291.068 81.525 C 291.868 82.775 292.268 84.8 292.268 87.6 C 292.268 90.3 291.868 92.275 291.068 93.525 C 290.268 94.775 289.218 95.60000000000001 287.918 96 C 286.618 96.39999999999999 285.118 96.6 283.418 96.6 L 263.318 96.15 L 246.668 96.3 C 244.068 96.2 242.293 95.5 241.343 94.2 C 240.393 92.9 239.918 90.7 239.918 87.6 C 239.918 84.6 240.493 82.425 241.643 81.075 C 242.793 79.725 244.618 79.05 247.118 79.05 Z" style="fill: rgb(18, 53, 71); text-wrap-mode: nowrap;"/>
  <path d="M 220.945 151.5 C 218.145 151.5 216.12 151.075 214.87 150.225 C 213.62 149.375 212.845 148.275 212.545 146.925 C 212.245 145.57500000000002 212.095 144.05 212.095 142.35 L 212.095 86.7 C 212.095 85 212.245 83.47500000000001 212.545 82.125 C 212.845 80.77499999999999 213.645 79.7 214.945 78.9 C 216.245 78.10000000000001 218.29500000000002 77.7 221.095 77.7 C 223.89499999999998 77.7 225.92 78.10000000000001 227.17 78.9 C 228.42 79.7 229.195 80.8 229.495 82.2 C 229.795 83.6 229.945 85.2 229.945 87 L 229.945 142.5 C 229.945 144.20000000000002 229.795 145.725 229.495 147.075 C 229.195 148.42499999999998 228.42 149.5 227.17 150.3 C 225.92 151.1 223.845 151.5 220.945 151.5 Z" style="fill: rgb(18, 53, 71); text-wrap-mode: nowrap;"/>
  <path d="M 195.593 135.3 C 198.19299999999998 137.5 199.56799999999998 139.54999999999998 199.718 141.45 C 199.868 143.35 198.84300000000002 145.55 196.643 148.05 C 194.94299999999998 149.95000000000002 193.418 151.20000000000002 192.068 151.8 C 190.71800000000002 152.4 189.393 152.42499999999998 188.093 151.875 C 186.793 151.32500000000002 185.293 150.3 183.593 148.8 L 154.943 124.8 L 154.943 142.5 C 154.943 144.1 154.768 145.6 154.418 147 C 154.068 148.4 153.268 149.5 152.018 150.3 C 150.768 151.1 148.743 151.5 145.943 151.5 C 143.143 151.5 141.093 151.075 139.793 150.225 C 138.493 149.375 137.69299999999998 148.25 137.393 146.85 C 137.09300000000002 145.45 136.943 143.95 136.943 142.35 L 136.943 52.8 C 136.943 51.1 137.118 49.575 137.468 48.225 C 137.81799999999998 46.875 138.643 45.775 139.943 44.925 C 141.243 44.074999999999996 143.293 43.65 146.093 43.65 C 148.893 43.65 150.893 44.074999999999996 152.093 44.925 C 153.293 45.775 154.068 46.9 154.418 48.3 C 154.768 49.699999999999996 154.943 51.25 154.943 52.95 L 154.943 102.15 L 175.643 82.2 C 177.143 80.6 178.618 79.52499999999999 180.068 78.975 C 181.518 78.425 182.918 78.375 184.268 78.825 C 185.618 79.275 187.043 80.35 188.543 82.05 C 191.043 84.85 192.243 87.125 192.143 88.875 C 192.043 90.625 190.793 92.65 188.393 94.95 L 168.143 113.7 L 195.593 135.3 Z" style="fill: rgb(18, 53, 71); text-wrap-mode: nowrap;"/>
  <path d="M 112.945 151.2 C 109.945 151.2 107.77 150.65 106.42 149.55 C 105.07 148.45000000000002 104.345 146.95000000000002 104.245 145.05 L 105.295 140.1 C 104.495 141.4 103.145 142.925 101.245 144.675 C 99.345 146.425 96.86999999999999 147.975 93.82 149.325 C 90.77 150.67499999999998 87.045 151.35 82.645 151.35 C 77.945 151.35 73.52 150.375 69.37 148.425 C 65.22 146.475 61.545 143.775 58.345 140.325 C 55.145 136.875 52.645 132.925 50.845 128.475 C 49.045 124.02499999999999 48.145 119.25 48.145 114.15 C 48.145 109.25 49.045 104.625 50.845 100.275 C 52.645 95.925 55.17 92.05 58.42 88.65 C 61.67 85.25 65.345 82.575 69.445 80.625 C 73.545 78.675 77.945 77.7 82.645 77.7 C 86.645 77.7 90.07 78.25 92.92 79.35 C 95.77 80.45 98.195 81.825 100.195 83.475 C 102.195 85.125 103.845 86.85000000000001 105.145 88.65 L 104.395 84.3 C 104.295 82.1 104.94500000000001 80.425 106.345 79.275 C 107.74499999999999 78.125 109.99499999999999 77.55 113.095 77.55 C 115.795 77.55 117.77 77.975 119.02 78.825 C 120.27 79.675 121.045 80.85 121.345 82.35 C 121.645 83.85 121.795 85.5 121.795 87.3 L 121.795 142.05 C 121.795 143.75 121.645 145.29999999999998 121.345 146.7 C 121.045 148.1 120.27 149.20000000000002 119.02 150 C 117.77 150.79999999999998 115.74499999999999 151.2 112.945 151.2 Z M 85.345 133.8 C 88.645 133.8 91.67 132.95000000000002 94.42 131.25 C 97.17 129.54999999999998 99.345 127.225 100.945 124.275 C 102.545 121.325 103.345 118.05 103.345 114.45 C 103.345 110.65 102.52 107.3 100.87 104.4 C 99.22 101.5 96.99499999999999 99.2 94.195 97.5 C 91.395 95.8 88.345 94.95 85.045 94.95 C 81.345 94.95 78.045 95.825 75.145 97.575 C 72.245 99.325 69.97 101.675 68.32 104.625 C 66.67 107.575 65.845 110.89999999999999 65.845 114.6 C 65.845 118.2 66.695 121.45 68.395 124.35 C 70.095 127.24999999999999 72.42 129.54999999999998 75.37 131.25 C 78.32000000000001 132.95000000000002 81.645 133.8 85.345 133.8 Z" style="fill: rgb(18, 53, 71); text-wrap-mode: nowrap;"/>
</svg>